<svg width="266" height="102" viewBox="0 0 266 102" fill="none" xmlns="http://www.w3.org/2000/svg">
<g filter="url(#filter0_d)">
<path d="M3 40C3 17.9086 20.9086 0 43 0H257V50C257 72.0914 239.091 90 217 90H3V40Z" fill="url(#paint0_linear)"/>
</g>
<g filter="url(#filter1_d)">
<path d="M57.0469 50.9492L63.4922 29.5625H70.0156L60.1133 58H54L44.1367 29.5625H50.6406L57.0469 50.9492ZM81.207 58.3906C78.1081 58.3906 75.582 57.4401 73.6289 55.5391C71.6888 53.638 70.7188 51.1055 70.7188 47.9414V47.3945C70.7188 45.2721 71.1289 43.3776 71.9492 41.7109C72.7695 40.0312 73.9284 38.7422 75.4258 37.8438C76.9362 36.9323 78.6549 36.4766 80.582 36.4766C83.4727 36.4766 85.7448 37.388 87.3984 39.2109C89.0651 41.0339 89.8984 43.6185 89.8984 46.9648V49.2695H76.4414C76.6237 50.6497 77.1706 51.7565 78.082 52.5898C79.0065 53.4232 80.1719 53.8398 81.5781 53.8398C83.7526 53.8398 85.4518 53.0521 86.6758 51.4766L89.4492 54.582C88.6029 55.7799 87.457 56.7174 86.0117 57.3945C84.5664 58.0586 82.9648 58.3906 81.207 58.3906ZM80.5625 41.0469C79.4427 41.0469 78.5312 41.4245 77.8281 42.1797C77.138 42.9349 76.6953 44.0156 76.5 45.4219H84.3516V44.9727C84.3255 43.7227 83.987 42.7591 83.3359 42.082C82.6849 41.3919 81.7604 41.0469 80.5625 41.0469ZM104.996 42.1602C104.228 42.056 103.551 42.0039 102.965 42.0039C100.829 42.0039 99.4297 42.7266 98.7656 44.1719V58H93.1211V36.8672H98.4531L98.6094 39.3867C99.7422 37.4466 101.311 36.4766 103.316 36.4766C103.941 36.4766 104.527 36.5612 105.074 36.7305L104.996 42.1602ZM128.57 50.9492L135.016 29.5625H141.539L131.637 58H125.523L115.66 29.5625H122.164L128.57 50.9492ZM149.82 58H144.156V36.8672H149.82V58ZM143.824 31.3984C143.824 30.5521 144.104 29.8555 144.664 29.3086C145.237 28.7617 146.012 28.4883 146.988 28.4883C147.952 28.4883 148.72 28.7617 149.293 29.3086C149.866 29.8555 150.152 30.5521 150.152 31.3984C150.152 32.2578 149.859 32.9609 149.273 33.5078C148.701 34.0547 147.939 34.3281 146.988 34.3281C146.038 34.3281 145.27 34.0547 144.684 33.5078C144.111 32.9609 143.824 32.2578 143.824 31.3984ZM153.609 47.2773C153.609 43.9831 154.345 41.3594 155.816 39.4062C157.301 37.4531 159.326 36.4766 161.891 36.4766C163.948 36.4766 165.647 37.2448 166.988 38.7812V28H172.652V58H167.555L167.281 55.7539C165.875 57.5117 164.065 58.3906 161.852 58.3906C159.365 58.3906 157.366 57.4141 155.855 55.4609C154.358 53.4948 153.609 50.7669 153.609 47.2773ZM159.254 47.6875C159.254 49.6667 159.599 51.1836 160.289 52.2383C160.979 53.293 161.982 53.8203 163.297 53.8203C165.042 53.8203 166.272 53.0846 166.988 51.6133V43.2734C166.285 41.8021 165.068 41.0664 163.336 41.0664C160.615 41.0664 159.254 43.2734 159.254 47.6875ZM186.754 58.3906C183.655 58.3906 181.129 57.4401 179.176 55.5391C177.236 53.638 176.266 51.1055 176.266 47.9414V47.3945C176.266 45.2721 176.676 43.3776 177.496 41.7109C178.316 40.0312 179.475 38.7422 180.973 37.8438C182.483 36.9323 184.202 36.4766 186.129 36.4766C189.02 36.4766 191.292 37.388 192.945 39.2109C194.612 41.0339 195.445 43.6185 195.445 46.9648V49.2695H181.988C182.171 50.6497 182.717 51.7565 183.629 52.5898C184.553 53.4232 185.719 53.8398 187.125 53.8398C189.299 53.8398 190.999 53.0521 192.223 51.4766L194.996 54.582C194.15 55.7799 193.004 56.7174 191.559 57.3945C190.113 58.0586 188.512 58.3906 186.754 58.3906ZM186.109 41.0469C184.99 41.0469 184.078 41.4245 183.375 42.1797C182.685 42.9349 182.242 44.0156 182.047 45.4219H189.898V44.9727C189.872 43.7227 189.534 42.7591 188.883 42.082C188.232 41.3919 187.307 41.0469 186.109 41.0469ZM197.789 47.2383C197.789 45.1419 198.193 43.2734 199 41.6328C199.807 39.9922 200.966 38.7227 202.477 37.8242C204 36.9258 205.764 36.4766 207.77 36.4766C210.621 36.4766 212.945 37.349 214.742 39.0938C216.552 40.8385 217.561 43.2083 217.77 46.2031L217.809 47.6484C217.809 50.8906 216.904 53.4948 215.094 55.4609C213.284 57.4141 210.855 58.3906 207.809 58.3906C204.762 58.3906 202.327 57.4141 200.504 55.4609C198.694 53.5078 197.789 50.8516 197.789 47.4922V47.2383ZM203.434 47.6484C203.434 49.6536 203.811 51.1901 204.566 52.2578C205.322 53.3125 206.402 53.8398 207.809 53.8398C209.176 53.8398 210.243 53.319 211.012 52.2773C211.78 51.2227 212.164 49.543 212.164 47.2383C212.164 45.2721 211.78 43.7487 211.012 42.668C210.243 41.5872 209.163 41.0469 207.77 41.0469C206.389 41.0469 205.322 41.5872 204.566 42.668C203.811 43.7357 203.434 45.3958 203.434 47.6484Z" fill="white"/>
</g>
<defs>
<filter id="filter0_d" x="0" y="0" width="266" height="102" filterUnits="userSpaceOnUse" color-interpolation-filters="sRGB">
<feFlood flood-opacity="0" result="BackgroundImageFix"/>
<feColorMatrix in="SourceAlpha" type="matrix" values="0 0 0 0 0 0 0 0 0 0 0 0 0 0 0 0 0 0 127 0"/>
<feOffset dx="3" dy="6"/>
<feGaussianBlur stdDeviation="3"/>
<feColorMatrix type="matrix" values="0 0 0 0 0 0 0 0 0 0 0 0 0 0 0 0 0 0 0.25 0"/>
<feBlend mode="normal" in2="BackgroundImageFix" result="effect1_dropShadow"/>
<feBlend mode="normal" in="SourceGraphic" in2="effect1_dropShadow" result="shape"/>
</filter>
<filter id="filter1_d" x="41.1367" y="26" width="187.672" height="44.3906" filterUnits="userSpaceOnUse" color-interpolation-filters="sRGB">
<feFlood flood-opacity="0" result="BackgroundImageFix"/>
<feColorMatrix in="SourceAlpha" type="matrix" values="0 0 0 0 0 0 0 0 0 0 0 0 0 0 0 0 0 0 127 0"/>
<feOffset dx="4" dy="5"/>
<feGaussianBlur stdDeviation="3.5"/>
<feColorMatrix type="matrix" values="0 0 0 0 0 0 0 0 0 0 0 0 0 0 0 0 0 0 0.25 0"/>
<feBlend mode="normal" in2="BackgroundImageFix" result="effect1_dropShadow"/>
<feBlend mode="normal" in="SourceGraphic" in2="effect1_dropShadow" result="shape"/>
</filter>
<linearGradient id="paint0_linear" x1="130" y1="0" x2="130" y2="143" gradientUnits="userSpaceOnUse">
<stop offset="0.169792" stop-color="#0AADC4"/>
<stop offset="1" stop-color="#20B5C9" stop-opacity="0"/>
</linearGradient>
</defs>
</svg>
